:FULLY-SPECIFIED
:FORCE-ALL-JOINTS-BE-3DOF
:DEGREES
815
root 1.96708 16.6968 22.5621 4.84972 1.87186 353.542
lfemur -39.3426 0.192211 -0.160734
ltibia 22.5011 0 0
lfoot -9.26545 7.23072 0
ltoes 15.0726 0 0
rfemur 0.774323 4.72989 21.8818
rtibia 22.9076 0 0
rfoot -22.2321 -10.5302 0
rtoes -22.2282 0 0
lowerback 0.935547 5.94664 5.62902
upperback -0.0921816 7.98578 -0.335307
thorax 0.196377 3.99666 -3.45893
lowerneck -5.89708 -1.72141 2.86139
upperneck -0.819095 -2.4885 1.38919
head 0.70345 -1.22627 -0.103727
lclavicle -1.09225e-13 9.7007e-15 0
lhumerus -53.1914 -7.22736 91.6715
lradius 54.1202 0 0
lwrist 19.8676 0 0
lhand -10.8569 5.02188 0
lfingers 7.12502 0 0
lthumb 15.1579 34.44 0
rclavicle -1.09225e-13 9.7007e-15 0
rhumerus -30.9171 45.4655 -111.406
rradius 67.6935 0 0
rwrist -0.95174 0 0
rhand -11.1236 -25.2429 0
rfingers 7.12502 0 0
rthumb 14.9006 -774.674 0
816
root 2.00021 16.6811 22.7219 4.89483 0.512491 353.256
lfemur -38.7091 -0.073704 0.87157
ltibia 20.5869 0 0
lfoot -8.82951 8.90128 0
ltoes 15.3791 0 0
rfemur 1.72132 5.17416 22.0414
rtibia 21.9529 0 0
rfoot -22.0508 -10.7784 0
rtoes -22.7465 0 0
lowerback 0.735669 6.12558 5.76253
upperback -0.126871 8.21508 -0.253847
thorax 0.301251 4.1132 -3.42328
lowerneck -5.8369 -1.6528 2.95675
upperneck -0.673741 -2.4049 1.37229
head 0.737954 -1.18325 -0.123208
lclavicle -1.2074e-13 4.27387e-15 0
lhumerus -53.1234 -7.07813 91.504
lradius 53.5552 0 0
lwrist 19.622 0 0
lhand -10.2756 5.18589 0
lfingers 7.12502 0 0
lthumb 15.7179 34.5635 0
rclavicle -1.2074e-13 4.27387e-15 0
rhumerus -30.6319 45.4535 -110.926
rradius 67.5302 0 0
rwrist -1.27573 0 0
rhand -10.33 -24.768 0
rfingers 7.12502 0 0
rthumb 15.6654 -774.146 0
817
root 2.03115 16.6664 22.8712 4.93696 -0.75725 352.989
lfemur -38.1174 -0.322086 1.83581
ltibia 18.7988 0 0
lfoot -8.42232 10.4617 0
ltoes 15.6653 0 0
rfemur 2.60588 5.58915 22.1904
rtibia 21.0611 0 0
rfoot -21.8814 -11.0103 0
rtoes -23.2307 0 0
lowerback 0.548969 6.29273 5.88725
upperback -0.159273 8.42926 -0.177758
thorax 0.39921 4.22205 -3.38998
lowerneck -5.78068 -1.58872 3.04583
upperneck -0.537971 -2.32681 1.3565
head 0.770183 -1.14307 -0.141404
lclavicle -1.31496e-13 -7.95139e-16 0
lhumerus -53.0599 -6.93873 91.3475
lradius 53.0275 0 0
lwrist 19.3926 0 0
lhand -9.73271 5.33909 0
lfingers 7.12502 0 0
lthumb 16.241 34.6788 0
rclavicle -1.31496e-13 -7.95139e-16 0
rhumerus -30.3656 45.4422 -110.478
rradius 67.3777 0 0
rwrist -1.57836 0 0
rhand -9.5887 -24.3245 0
rfingers 7.12502 0 0
rthumb 16.3797 -773.653 0
818
root 2.07021 16.6355 23.0379 4.8129 -1.80219 352.847
lfemur -37.5053 -0.15791 2.10064
ltibia 18.7041 0 0
lfoot -8.20614 11.428 0
ltoes 16.6407 0 0
rfemur 3.55107 5.67226 22.0913
rtibia 20.5653 0 0
rfoot -21.7327 -11.3353 0
rtoes -24.3229 0 0
lowerback 0.368559 6.45253 5.89008
upperback -0.218948 8.63175 -0.123039
thorax 0.449161 4.323 -3.30914
lowerneck -5.70761 -1.53851 3.14299
upperneck -0.263419 -2.26929 1.33353
head 0.843898 -1.11028 -0.164643
lclavicle -9.88486e-14 -4.19656e-16 0
lhumerus -53.2276 -6.64855 91.0578
lradius 52.8006 0 0
lwrist 19.0339 0 0
lhand -8.95923 5.38004 0
lfingers 7.12502 0 0
lthumb 16.985 34.6484 0
rclavicle -9.88486e-14 -4.19656e-16 0
rhumerus -30.1328 45.3056 -109.759
rradius 67.2543 0 0
rwrist -1.80735 0 0
rhand -8.94031 -23.7802 0
rfingers 7.12502 0 0
rthumb 17.0034 -773.05 0
819
root 2.11203 16.6024 23.2164 4.68007 -2.9209 352.695
lfemur -36.8499 0.0178557 2.38417
ltibia 18.6026 0 0
lfoot -7.97471 12.4626 0
ltoes 17.6849 0 0
rfemur 4.56298 5.76124 21.9851
rtibia 20.0344 0 0
rfoot -21.5734 -11.6833 0
rtoes -25.4922 0 0
lowerback 0.175414 6.6236 5.89312
upperback -0.282835 8.84852 -0.0644577
thorax 0.502637 4.43108 -3.22258
lowerneck -5.62938 -1.48476 3.24702
upperneck 0.0305126 -2.20772 1.30894
head 0.922816 -1.07517 -0.189522
lclavicle -6.38967e-14 -1.76691e-17 0
lhumerus -53.4071 -6.33789 90.7477
lradius 52.5576 0 0
lwrist 18.6498 0 0
lhand -8.13116 5.42389 0
lfingers 7.12502 0 0
lthumb 17.7815 34.6159 0
rclavicle -6.38967e-14 -1.76691e-17 0
rhumerus -29.8836 45.1593 -108.989
rradius 67.1221 0 0
rwrist -2.05249 0 0
rhand -8.24615 -23.1974 0
rfingers 7.12502 0 0
rthumb 17.6712 -772.404 0
820
root 2.15523 16.5681 23.4007 4.54287 -4.07648 352.539
lfemur -36.173 0.199416 2.67705
ltibia 18.4978 0 0
lfoot -7.73564 13.5312 0
ltoes 18.7635 0 0
rfemur 5.60825 5.85315 21.8755
rtibia 19.4861 0 0
rfoot -21.409 -12.0427 0
rtoes -26.7001 0 0
lowerback -0.0240985 6.80031 5.89626
upperback -0.348829 9.07245 -0.003945
thorax 0.557876 4.54272 -3.13318
lowerneck -5.54856 -1.42923 3.35447
upperneck 0.334135 -2.14411 1.28354
head 1.00434 -1.03891 -0.215221
lclavicle -2.77926e-14 3.9757e-16 0
lhumerus -53.5925 -6.01699 90.4274
lradius 52.3066 0 0
lwrist 18.253 0 0
lhand -7.27578 5.46917 0
lfingers 7.12502 0 0
lthumb 18.6043 34.5824 0
rclavicle -2.77926e-14 3.9757e-16 0
rhumerus -29.6262 45.0082 -108.194
rradius 66.9857 0 0
rwrist -2.30573 0 0
rhand -7.5291 -22.5954 0
rfingers 7.12502 0 0
rthumb 18.3609 -771.737 0
